<svg width="108" height="108" viewBox="0 0 108 108" fill="none" xmlns="http://www.w3.org/2000/svg">
<path d="M38.322 2.67683C38.4157 0.733102 40.9485 0.0544342 42.0015 1.69089L56.46 24.1602C57.1288 25.1997 58.5712 25.3895 59.4863 24.5586L79.2675 6.59705C80.7082 5.2889 82.9791 6.59999 82.5665 8.50174L76.902 34.6136C76.64 35.8216 77.5256 36.9757 78.7602 37.0352L105.448 38.322C107.392 38.4157 108.071 40.9485 106.434 42.0015L83.9651 56.4599C82.9256 57.1288 82.7357 58.5711 83.5666 59.4863L101.528 79.2675C102.836 80.7082 101.525 82.9791 99.6235 82.5665L73.5117 76.902C72.3037 76.6399 71.1495 77.5255 71.09 78.7602L69.8033 105.448C69.7096 107.392 67.1767 108.071 66.1237 106.434L51.6653 83.9651C50.9964 82.9256 49.5541 82.7357 48.6389 83.5666L28.8577 101.528C27.417 102.836 25.1462 101.525 25.5587 99.6235L31.2232 73.5117C31.4853 72.3036 30.5997 71.1495 29.365 71.09L2.67684 69.8033C0.733118 69.7095 0.0544503 67.1767 1.69091 66.1237L24.1602 51.6653C25.1997 50.9964 25.3896 49.5541 24.5586 48.6389L6.59707 28.8577C5.28891 27.417 6.6 25.1461 8.50175 25.5587L34.6136 31.2232C35.8216 31.4853 36.9757 30.5997 37.0353 29.365L38.322 2.67683Z" fill="#9044EF"/>
</svg>
