<svg width="13" height="13" viewBox="0 0 13 13" fill="none" xmlns="http://www.w3.org/2000/svg">
<path d="M3.4997 1.18644C3.55769 -0.0162156 5.12484 -0.436133 5.77638 0.576404V0.576404C6.19025 1.21958 7.08266 1.33707 7.6489 0.822925V0.822925C8.5403 0.0135209 9.94537 0.824739 9.69011 2.00142V2.00142C9.52797 2.74887 10.0759 3.46297 10.8399 3.49981V3.49981C12.0425 3.55779 12.4624 5.12494 11.4499 5.77649V5.77649C10.8067 6.19036 10.6892 7.08276 11.2034 7.649V7.649C12.0128 8.5404 11.2016 9.94548 10.0249 9.69021V9.69021C9.27743 9.52807 8.56333 10.076 8.5265 10.84V10.84C8.46851 12.0426 6.90136 12.4625 6.24982 11.45V11.45C5.83595 10.8068 4.94354 10.6893 4.3773 11.2035V11.2035C3.4859 12.0129 2.08083 11.2017 2.33609 10.025V10.025C2.49823 9.27753 1.95028 8.56343 1.18634 8.5266V8.5266C-0.0163168 8.46861 -0.436234 6.90146 0.576302 6.24992V6.24992C1.21948 5.83605 1.33697 4.94364 0.822823 4.3774V4.3774C0.0134197 3.486 0.824638 2.08093 2.00132 2.33619V2.33619C2.74877 2.49834 3.46287 1.95038 3.4997 1.18644V1.18644Z" fill="#F65606"/>
</svg>
